<svg xmlns="http://www.w3.org/2000/svg" viewBox="0 0 194.2 194.2"><defs><style>.cls-1{fill:#6200ff;}</style></defs><g id="Camada_2" data-name="Camada 2"><g id="Camada_1-2" data-name="Camada 1"><path class="cls-1" d="M53.94,49.53a1,1,0,0,0-1,1v97.79a1,1,0,0,0,1,1H103.8a1,1,0,0,0,1-1V50.49a1,1,0,0,0-1-1ZM103.8,152.86H53.94a4.58,4.58,0,0,1-4.57-4.58V50.49a4.58,4.58,0,0,1,4.57-4.58H103.8a4.59,4.59,0,0,1,4.58,4.58v97.79a4.59,4.59,0,0,1-4.58,4.58"/><rect class="cls-1" x="51.17" y="66.99" width="54.83" height="3.62"/><path class="cls-1" d="M83.1,60.12H74.64a1.81,1.81,0,0,1,0-3.62H83.1a1.81,1.81,0,1,1,0,3.62"/><path class="cls-1" d="M136,94.41H125.18a1.81,1.81,0,0,1,0-3.62H136a1.81,1.81,0,0,1,0,3.62"/><path class="cls-1" d="M151.25,94.41h-5.43a1.81,1.81,0,0,1,0-3.62h5.43a1.81,1.81,0,1,1,0,3.62"/><path class="cls-1" d="M138.21,118.34h-13a1.81,1.81,0,1,1,0-3.61h13a1.81,1.81,0,1,1,0,3.61"/><path class="cls-1" d="M151.25,102.39H125.18a1.81,1.81,0,0,1,0-3.62h26.07a1.81,1.81,0,0,1,0,3.62"/><path class="cls-1" d="M146.88,110.36h-21.7a1.81,1.81,0,1,1,0-3.61h21.7a1.81,1.81,0,0,1,0,3.61"/><path class="cls-1" d="M106,95.47h-3a1.13,1.13,0,0,1,0-2.26h3a1.13,1.13,0,0,1,0,2.26"/><path class="cls-1" d="M106,114.53h-3a1.13,1.13,0,0,1,0-2.26h3a1.13,1.13,0,0,1,0,2.26"/><path class="cls-1" d="M106,101.83h-3a1.13,1.13,0,0,1,0-2.26h3a1.13,1.13,0,0,1,0,2.26"/><path class="cls-1" d="M106,108.18h-3a1.13,1.13,0,1,1,0-2.26h3a1.13,1.13,0,0,1,0,2.26"/><rect class="cls-1" x="51.17" y="132.03" width="54.83" height="3.62"/><path class="cls-1" d="M108.38,124h48.55V83.23H108.38Zm50.36,3.62H106.57a1.81,1.81,0,0,1-1.81-1.81V81.42a1.81,1.81,0,0,1,1.81-1.81h52.17a1.81,1.81,0,0,1,1.81,1.81v44.41a1.81,1.81,0,0,1-1.81,1.81"/><path class="cls-1" d="M76.69,118.78h28.75V88.47H76.69ZM106.57,121h-31a1.13,1.13,0,0,1-1.13-1.13V87.34a1.13,1.13,0,0,1,1.13-1.13h31a1.14,1.14,0,0,1,1.13,1.13v32.57a1.14,1.14,0,0,1-1.13,1.13"/><path class="cls-1" d="M83.7,112.05H93.86V95.2H83.7ZM95,114.31H82.57a1.12,1.12,0,0,1-1.13-1.13V94.07a1.13,1.13,0,0,1,1.13-1.13H95a1.14,1.14,0,0,1,1.13,1.13v19.11A1.13,1.13,0,0,1,95,114.31"/><path class="cls-1" d="M108.38,115.05h6.92V92.21h-6.92Zm8.73,3.61H106.57a1.81,1.81,0,0,1-1.81-1.8V90.4a1.81,1.81,0,0,1,1.81-1.81h10.54a1.81,1.81,0,0,1,1.81,1.81v26.46a1.81,1.81,0,0,1-1.81,1.8"/><path class="cls-1" d="M82.57,110a1.13,1.13,0,0,1,0-2.26c2.2,0,2.37-4,2.37-4a3.84,3.84,0,0,1,7.67,0v0c0,.57.07,2.39.81,3.16a1,1,0,0,0,.82.33,1.13,1.13,0,1,1,0,2.26,3.35,3.35,0,0,1-2.46-1c-1.49-1.56-1.45-4.35-1.43-4.79a1.58,1.58,0,0,0-3.15,0c0,2.19-1.1,6.28-4.63,6.28"/><path class="cls-1" d="M117.11,110.69a4.91,4.91,0,0,1-3.63-1.53c-2.16-2.26-2.11-6.27-2.09-6.94a2,2,0,0,0-2-2h-2.17a1.81,1.81,0,1,1,0-3.61h2.17a5.65,5.65,0,0,1,5.65,5.64v.08c-.05,1.19.2,3.42,1.09,4.34a1.29,1.29,0,0,0,1,.4,1.81,1.81,0,1,1,0,3.62"/><path class="cls-1" d="M100.65,84.27a1.81,1.81,0,0,1-1.81-1.8V79a2.59,2.59,0,0,0-2.58-2.58H92.8a1.81,1.81,0,0,1,0-3.62h3.46a6.21,6.21,0,0,1,6.2,6.2v3.47a1.81,1.81,0,0,1-1.81,1.8"/><path class="cls-1" d="M96.26,129.83H92.8a1.81,1.81,0,1,1,0-3.61h3.46a2.59,2.59,0,0,0,2.58-2.58v-3.47a1.81,1.81,0,1,1,3.62,0v3.47a6.2,6.2,0,0,1-6.2,6.19"/><path class="cls-1" d="M57.09,84.27a1.81,1.81,0,0,1-1.8-1.8V79a6.2,6.2,0,0,1,6.19-6.2H65a1.81,1.81,0,0,1,0,3.62H61.48A2.59,2.59,0,0,0,58.9,79v3.47a1.81,1.81,0,0,1-1.81,1.8"/><path class="cls-1" d="M65,129.83H61.48a6.2,6.2,0,0,1-6.19-6.19v-3.47a1.81,1.81,0,1,1,3.61,0v3.47a2.59,2.59,0,0,0,2.58,2.58H65a1.81,1.81,0,1,1,0,3.61"/><path class="cls-1" d="M97.1,4.07a93,93,0,1,0,93,93,93.13,93.13,0,0,0-93-93m0,190.13A97.1,97.1,0,0,1,28.44,28.44,97.1,97.1,0,1,1,165.76,165.76,96.47,96.47,0,0,1,97.1,194.2"/><path class="cls-1" d="M78.59,141.25a1.06,1.06,0,0,0,0,2.11,1.06,1.06,0,1,0,0-2.11m0,5.72a4.67,4.67,0,1,1,4.67-4.67A4.67,4.67,0,0,1,78.59,147"/></g></g></svg>