<svg xmlns="http://www.w3.org/2000/svg" viewBox="0 0 194.2 194.2"><defs><style>.cls-1{fill:#6200ff;}</style></defs><g id="Camada_2" data-name="Camada 2"><g id="Camada_1-2" data-name="Camada 1"><path class="cls-1" d="M120.53,136.07H106.05l.36-9.58h17.52v6.17a3.41,3.41,0,0,1-3.4,3.41M93.17,155.6l-10.5,12.79L64.35,153.25l2.08-3.67a2,2,0,0,0,.27-1.1l-.65-21.31a9,9,0,0,1,1.62-5.36L75,111.39v21.27a1.1,1.1,0,0,0,0,.18,2.26,2.26,0,0,0,0,.52,2.1,2.1,0,0,0,2.39,1.77l9.75-1.43a2.08,2.08,0,0,0,1.68-1.38l6.35-18.15a3.85,3.85,0,0,1,7.39,1.63l-.82,21.4c-.32,8.3-3.09,11.68-8.62,18.4m-12,20.85-24.83-21,1.81-1.88L83,174ZM82.64,52.37h37.89a3.41,3.41,0,0,1,3.4,3.41V62H79.24V55.78a3.41,3.41,0,0,1,3.4-3.41m-3.4,74.12h7.21l-1.13,3.24-6.08.89Zm21.26-18.7a7.9,7.9,0,0,0-9.21,4.87l-3.37,9.63H79.24V66.16h44.69v56.13H106.57l.24-6.33a7.86,7.86,0,0,0-6.31-8.17m20-59.62H82.64A7.62,7.62,0,0,0,75,55.78v48.31l-10.8,15.3a13.24,13.24,0,0,0-2.39,7.9L62.48,148l-1.42,2.5-.25-.2a4.16,4.16,0,0,0-5.61.31l-1.86,1.92a4.13,4.13,0,0,0,.29,6l24.84,21.07a4.17,4.17,0,0,0,2.68,1l.44,0a4.16,4.16,0,0,0,2.84-1.6l1.88-2.45a4.12,4.12,0,0,0-.41-5.48l10.52-12.81c5.13-6.24,8.43-10.28,9.35-18h14.76a7.62,7.62,0,0,0,7.61-7.62V55.78a7.61,7.61,0,0,0-7.61-7.61"/><path class="cls-1" d="M98,59.27h7.27a2.11,2.11,0,1,0,0-4.21H98a2.11,2.11,0,1,0,0,4.21"/><path class="cls-1" d="M88.81,85.69a2.1,2.1,0,0,0,2.1-2.1V80.72a3.31,3.31,0,0,1,3.31-3.31H97.1a2.11,2.11,0,0,0,0-4.21H94.22a7.53,7.53,0,0,0-7.52,7.52v2.87a2.11,2.11,0,0,0,2.11,2.1"/><path class="cls-1" d="M97.1,98.75H94.22a3.31,3.31,0,0,1-3.31-3.31V92.57a2.11,2.11,0,0,0-4.21,0v2.87A7.53,7.53,0,0,0,94.22,103H97.1a2.11,2.11,0,0,0,0-4.21"/><path class="cls-1" d="M116.47,95.44V92.57a2.11,2.11,0,0,0-4.21,0v2.87A3.31,3.31,0,0,1,109,98.75h-2.87a2.11,2.11,0,1,0,0,4.21H109a7.52,7.52,0,0,0,7.52-7.52"/><path class="cls-1" d="M106.08,77.41H109a3.31,3.31,0,0,1,3.31,3.31v2.87a2.11,2.11,0,0,0,4.21,0V80.72A7.52,7.52,0,0,0,109,73.2h-2.87a2.11,2.11,0,1,0,0,4.21"/><path class="cls-1" d="M95.59,80.93a2.1,2.1,0,0,0-2.1,2.1v.51a2.11,2.11,0,0,0,4.21,0V83a2.11,2.11,0,0,0-2.11-2.1"/><path class="cls-1" d="M97.74,88.55a2.1,2.1,0,0,0,2.1,2.1A3.66,3.66,0,0,0,103.5,87V83a2.11,2.11,0,0,0-4.21,0v3.49a2.11,2.11,0,0,0-1.55,2"/><path class="cls-1" d="M105.48,83v.51a2.11,2.11,0,0,0,4.21,0V83a2.11,2.11,0,0,0-4.21,0"/><path class="cls-1" d="M107.75,92.56a2.1,2.1,0,0,0-3-.39c-3,2.28-6.35,0-6.51-.06a2.1,2.1,0,0,0-2.4,3.45,11.38,11.38,0,0,0,6,1.86,8.87,8.87,0,0,0,5.49-1.91,2.11,2.11,0,0,0,.39-3"/><path class="cls-1" d="M65.46,56.6H54.33a1.81,1.81,0,1,1,0-3.61H65.46a1.81,1.81,0,1,1,0,3.61"/><path class="cls-1" d="M78.58,42.61a1.81,1.81,0,0,1-1.81-1.81V29.67a1.81,1.81,0,1,1,3.61,0V40.8a1.8,1.8,0,0,1-1.8,1.81"/><path class="cls-1" d="M69.18,47.41a1.75,1.75,0,0,1-1.27-.53L60,39a1.81,1.81,0,0,1,2.56-2.56l7.87,7.88a1.79,1.79,0,0,1,0,2.55,1.76,1.76,0,0,1-1.28.53"/><path class="cls-1" d="M97.1,4.07a93,93,0,1,0,93,93,93.13,93.13,0,0,0-93-93m0,190.13A97.1,97.1,0,0,1,28.44,28.44,97.1,97.1,0,1,1,165.76,165.76,96.47,96.47,0,0,1,97.1,194.2"/></g></g></svg>