<svg xmlns="http://www.w3.org/2000/svg" viewBox="0 0 194.2 194.2"><defs><style>.cls-1{fill:#6200ff;}</style></defs><g id="Camada_2" data-name="Camada 2"><g id="Camada_1-2" data-name="Camada 1"><path class="cls-1" d="M146.57,175.85a93,93,0,1,1,36.23-42.57,30,30,0,0,1,2.08,5.44A97.13,97.13,0,0,0,28.44,28.44,97.1,97.1,0,0,0,97.1,194.2,96.32,96.32,0,0,0,152.27,177,29.87,29.87,0,0,1,146.57,175.85Z"/><path class="cls-1" d="M154.56,115.13A30.39,30.39,0,1,0,185,145.52a30.43,30.43,0,0,0-30.39-30.39m0,63.31a32.92,32.92,0,1,1,32.92-32.92,33,33,0,0,1-32.92,32.92"/><path class="cls-1" d="M149.66,115.54a31.58,31.58,0,0,1,5.27-.45l.66,0c-.37-.4-.75-.8-1.13-1.19a31.94,31.94,0,0,0-5.92.63C148.91,114.88,149.3,115.2,149.66,115.54Z"/><path class="cls-1" d="M124.37,96.1l-1.87,3a2.24,2.24,0,0,0-.19,2,2.27,2.27,0,0,0,1.53,1.35l3.4.88a52.36,52.36,0,0,1,20,10.11,33.23,33.23,0,0,1,5.86-.84A56.6,56.6,0,0,0,128.37,99l-.4-.11.22-.35a37,37,0,1,0-62.21,0l.22.35-.39.11c-18.5,4.79-33.27,18.4-38.55,35.51a.19.19,0,0,0,0,.07l-5.58,20.69A2.25,2.25,0,0,0,23.25,158a2.39,2.39,0,0,0,.59.08A2.26,2.26,0,0,0,26,156.42l5.57-20.65c4.83-15.6,18.37-28,35.35-32.43l3.39-.88a2.27,2.27,0,0,0,1.54-1.35,2.29,2.29,0,0,0-.19-2l-1.87-3a32.47,32.47,0,1,1,54.56,0Z"/><path class="cls-1" d="M152.41,163a2.69,2.69,0,0,1-1.73-.63l-10.29-8.6a2.71,2.71,0,1,1,3.47-4.16l8.07,6.74,15.83-21.64a2.71,2.71,0,0,1,4.38,3.2l-17.54,24a2.71,2.71,0,0,1-1.86,1.09l-.33,0"/><path class="cls-1" d="M87.87,68.52a3.44,3.44,0,1,1-3.44-3.44,3.44,3.44,0,0,1,3.44,3.44"/><path class="cls-1" d="M112.73,68.52a3.44,3.44,0,1,1-3.43-3.44,3.44,3.44,0,0,1,3.43,3.44"/><path class="cls-1" d="M96.87,89.87C89.82,89.87,84.3,86,84.3,81a2.26,2.26,0,0,1,4.52,0c0,2,3.3,4.33,8.05,4.33s8-2.28,8-4.33a2.26,2.26,0,0,1,4.52,0c0,5-5.52,8.85-12.56,8.85"/><path class="cls-1" d="M98,78.92H93.92a2.26,2.26,0,1,1,0-4.52h1.82v-14a2.26,2.26,0,1,1,4.52,0V76.66A2.26,2.26,0,0,1,98,78.92"/><path class="cls-1" d="M154.56,116.56a29,29,0,1,0,29,29,29,29,0,0,0-29-29m0,60.34a31.38,31.38,0,1,1,31.38-31.38,31.42,31.42,0,0,1-31.38,31.38"/></g></g></svg>